<?xml version="1.0" encoding="UTF-8" ?>
<svg width="372pt" height="186pt" viewBox="0.00 0.00 371.92 186.00" xmlns="http://www.w3.org/2000/svg" xmlns:xlink="http://www.w3.org/1999/xlink">
<g id="graph0" class="graph" transform="scale(1 1) rotate(0) translate(4 182)">
<title>g</title>
<g id="clust1" class="cluster">
<title>clusterP1</title>
<polygon fill="transparent" stroke="#000000" points="8,-93 8,-170 81.2104,-170 81.2104,-93 8,-93"/>
<text text-anchor="middle" x="44.6052" y="-153.4" font-family="Times,serif" font-size="14.00" fill="#000000">Page 1</text>
</g>
<g id="clust2" class="cluster">
<title>clusterP2</title>
<polygon fill="transparent" stroke="#000000" points="8,-8 8,-85 172.8668,-85 172.8668,-8 8,-8"/>
<text text-anchor="middle" x="90.4334" y="-68.4" font-family="Times,serif" font-size="14.00" fill="#000000">Page 2</text>
</g>
<!-- p1content -->
<g id="node1" class="node">
<title>p1content</title>
<polygon fill="none" stroke="#000000" points="73.316,-137 27.8944,-137 27.8944,-141 15.8944,-141 15.8944,-101 73.316,-101 73.316,-137"/>
<polyline fill="none" stroke="#000000" points="15.8944,-137 27.8944,-137 "/>
<text text-anchor="middle" x="44.6052" y="-114.8" font-family="Times,serif" font-size="14.00" fill="#000000">content</text>
</g>
<!-- BODY -->
<g id="node2" class="node">
<title>BODY</title>
<polygon fill="none" stroke="#000000" points="164.6961,-52 121.3811,-52 121.3811,-56 109.3811,-56 109.3811,-16 164.6961,-16 164.6961,-52"/>
<polyline fill="none" stroke="#000000" points="109.3811,-52 121.3811,-52 "/>
<text text-anchor="middle" x="137.0386" y="-29.8" font-family="Times,serif" font-size="14.00" fill="#000000">BODY</text>
</g>
<!-- p1content&#45;&gt;BODY -->
<g id="edge1" class="edge">
<title>p1content-&gt;BODY</title>
<path fill="none" stroke="#000000" d="M67.334,-100.9139C71.9904,-97.0584 76.8108,-92.9551 81.2104,-89 91.6695,-79.5977 102.7843,-68.8213 112.3201,-59.3133"/>
<polygon fill="#000000" stroke="#000000" points="115.0141,-61.568 119.5864,-52.0106 110.052,-56.6307 115.0141,-61.568"/>
</g>
<!-- render -->
<g id="node4" class="node">
<title>render</title>
<ellipse fill="none" stroke="#000000" cx="236.5633" cy="-34" rx="35.8941" ry="18"/>
<text text-anchor="middle" x="236.5633" y="-29.8" font-family="Times,serif" font-size="14.00" fill="#000000">render</text>
</g>
<!-- BODY&#45;&gt;render -->
<g id="edge3" class="edge">
<title>BODY-&gt;render</title>
<path fill="none" stroke="#000000" d="M164.7618,-34C172.7818,-34 181.7588,-34 190.5769,-34"/>
<polygon fill="#000000" stroke="#000000" points="190.7886,-37.5001 200.7886,-34 190.7885,-30.5001 190.7886,-37.5001"/>
</g>
<!-- p2content -->
<g id="node3" class="node">
<title>p2content</title>
<polygon fill="none" stroke="#000000" points="73.316,-52 27.8944,-52 27.8944,-56 15.8944,-56 15.8944,-16 73.316,-16 73.316,-52"/>
<polyline fill="none" stroke="#000000" points="15.8944,-52 27.8944,-52 "/>
<text text-anchor="middle" x="44.6052" y="-29.8" font-family="Times,serif" font-size="14.00" fill="#000000">content</text>
</g>
<!-- p2content&#45;&gt;BODY -->
<g id="edge2" class="edge">
<title>p2content-&gt;BODY</title>
<path fill="none" stroke="#000000" d="M73.345,-34C81.4832,-34 90.4694,-34 99.0626,-34"/>
<polygon fill="#000000" stroke="#000000" points="99.2664,-37.5001 109.2664,-34 99.2663,-30.5001 99.2664,-37.5001"/>
</g>
<!-- HTML -->
<g id="node5" class="node">
<title>HTML</title>
<polygon fill="none" stroke="#000000" points="357.7454,-52 308.4305,-52 308.4305,-16 363.7454,-16 363.7454,-46 357.7454,-52"/>
<polyline fill="none" stroke="#000000" points="357.7454,-52 357.7454,-46 "/>
<polyline fill="none" stroke="#000000" points="363.7454,-46 357.7454,-46 "/>
<text text-anchor="middle" x="336.088" y="-29.8" font-family="Times,serif" font-size="14.00" fill="#000000">HTML</text>
</g>
<!-- render&#45;&gt;HTML -->
<g id="edge4" class="edge">
<title>render-&gt;HTML</title>
<path fill="none" stroke="#000000" d="M272.494,-34C280.8858,-34 289.8478,-34 298.317,-34"/>
<polygon fill="#000000" stroke="#000000" points="298.3318,-37.5001 308.3317,-34 298.3317,-30.5001 298.3318,-37.5001"/>
</g>
</g>
</svg>